        <svg width="180" height="180" xmlns="http://www.w3.org/2000/svg" xmlns:svg="http://www.w3.org/2000/svg">
          <!-- Created with SVG-edit - http://svg-edit.googlecode.com/ By joaquinelio 'Lito' de Buenos Aires--> 
          <!-- site is no more!  Did it move to git? -->
          <g>
           <title>Layer 2</title>
           <g id="svg_1">
            <path fill="black" id="svg_cat" d="m43.65625,100.20312c-25.13875,0 -45.5,21.01512 -45.5,46.96117c0,20.7803 13.02438,38.33205 31.11063,44.5544c2.275,0.4109 3.12813,-0.99792 3.12813,-2.23067c0,-1.11533 -0.05688,-4.81352 -0.05688,-8.74651c-11.43188,2.17194 -14.38938,-2.87639 -15.29938,-5.51794c-0.51188,-1.35014 -2.73,-5.51794 -4.66375,-6.63327c-1.5925,-0.88052 -3.8675,-3.05247 -0.05688,-3.11118c3.58313,-0.0587 6.1425,3.40468 6.99562,4.81352c4.09501,7.10287 10.63564,5.10703 13.25189,3.8743c0.39813,-3.05247 1.5925,-5.10703 2.90062,-6.28108c-10.12374,-1.17401 -20.7025,-5.22441 -20.7025,-23.18706c0,-5.10703 1.76313,-9.33353 4.66376,-12.6208c-0.455,-1.17403 -2.0475,-5.98755 0.455,-12.4447c0,0 3.81063,-1.23274 12.5125,4.81351c3.64,-1.05663 7.5075,-1.58493 11.375,-1.58493c3.8675,0 7.735,0.52831 11.375,1.58493c8.70188,-6.10495 12.5125,-4.81351 12.5125,-4.81351c2.5025,6.45715 0.91,11.27068 0.455,12.4447c2.90063,3.28728 4.66375,7.45508 4.66375,12.6208c0,18.02136 -10.63563,22.01306 -20.75938,23.18706c1.64938,1.46756 3.07125,4.28523 3.07125,8.68784c0,6.28107 -0.05688,11.32939 -0.05688,12.91432c0,1.23271 0.85313,2.70027 3.12813,2.23067a45.57394,47.03747 0 0 0 30.99688,-44.5544c0,-25.94604 -20.36124,-46.96117 -45.5,-46.96117l-0.00001,0z" fill-rule="evenodd"/>
           </g>
           <ellipse id="svg_3" ry="36.89764" rx="32.95218" cy="40.89764" cx="45.55435" fill="#ff7f00"/>
           <ellipse id="svg_4" ry="20.68504" rx="16.47609" cy="58.22834" cx="45.48696" fill="#ffaaaa"/>
           <ellipse id="svg_5" ry="16.77165" rx="11.50218" cy="23.56693" cx="32.18696" fill="#ffaaaa"/>
           <ellipse id="svg_6" ry="16.49213" rx="10.56957" cy="23.56693" cx="56.74565" fill="#ffaaaa"/>
           <ellipse id="svg_7" ry="3.91339" rx="2.48696" cy="47.6063" cx="43.37826" fill="black"/>
           <circle id="svg_8" r="6.52343" cy="20.44488" cx="79.38479" fill="#ffaaaa"/>
           <circle id="svg_9" r="6.52343" cy="22.03543" cx="12.11521" fill="#ffaaaa"/>
           <ellipse id="svg_10" ry="3.91339" rx="2.48696" cy="47.88582" cx="48.35217" fill="black"/>
           <ellipse id="svg_11" ry="5.45079" rx="3.575" cy="32.9311" cx="52.23804" fill="black"/>
           <ellipse id="svg_12" ry="4.89173" rx="3.73043" cy="34.60827" cx="37.47174" fill="black"/>
           <circle id="svg_13" r="0" fill="black" opacity="0.5" cx="170.08917" cy="221.83203"/>
           <circle id="svg_14" r="0" fill="black" opacity="0.5" cx="150.19352" cy="155.49082"/>
           <rect id="svg_16" height="1" width="0" y="246" x="91" fill="black"/>
           <rect id="svg_17" height="0" width="1" y="145" x="31" fill="black"/>
           <ellipse transform="rotate(-24.524200439453125 10.736335754394487,91.3590087890625) " id="svg_19" ry="7.43021" rx="4.0413" cy="91.35901" cx="10.73634" fill="#ffaaaa"/>
           <ellipse transform="rotate(-24.524200439453125 25.490751266479474,89.3254165649414) " id="svg_20" ry="11.46063" rx="4.0413" cy="89.32542" cx="25.49075" fill="#ffaaaa"/>
           <ellipse transform="rotate(-24.524200439453125 18.470909118652244,91.91364288330077) " id="svg_21" ry="11.46063" rx="4.0413" cy="91.91364" cx="18.47091" fill="#ffaaaa"/>
           <rect id="svg_15" height="5" width="12" y="70" x="39" fill="black"/>
           <g id="svg_26">
            <ellipse transform="rotate(21.197200775146484 56.191238403320284,107.72525024414062) " id="svg_23" ry="11.46063" rx="4.0413" cy="107.72525" cx="56.19124" fill="#ffaaaa"/>
            <ellipse transform="rotate(21.197200775146484 72.2954864501954,109.83770751953122) " id="svg_24" ry="6.52781" rx="4.0413" cy="109.8377" cx="72.29549" fill="#ffaaaa"/>
            <ellipse transform="rotate(21.197200775146484 63.33607482910155,110.79596710205078) " id="svg_25" ry="11.46063" rx="4.0413" cy="110.79597" cx="63.33607" fill="#ffaaaa"/>
           </g>
           <text transform="matrix(0.5492730736732483,0,0,0.2636195880060623,26.790081683546305,118.10820624733634) " xml:space="preserve" text-anchor="middle" font-family="Cursive" font-size="24" id="svg_27" y="217.99046" x="175" stroke-linecap="null" stroke-linejoin="null" stroke-dasharray="null" stroke-width="0" fill="#000000">By Elio Bs As</text>
          </g>
         </svg>